<svg aria-hidden="true" style="position: absolute; width: 0; height: 0; overflow: hidden;" version="1.1" xmlns="http://www.w3.org/2000/svg" xmlns:xlink="http://www.w3.org/1999/xlink">
<defs>
<symbol id="icon-arrow" viewBox="0 0 19 32">
<path d="M17.414 17.414c0.781-0.781 0.781-2.047 0-2.829l-12.728-12.728c-0.781-0.781-2.047-0.781-2.828 0s-0.781 2.047 0 2.828l11.314 11.314-11.314 11.314c-0.781 0.781-0.781 2.047 0 2.828s2.047 0.781 2.828 0l12.728-12.728zM14.667 18h1.333v-4h-1.333v4z"></path>
</symbol>
<symbol id="icon-phone" viewBox="0 0 32 32">
<path stroke-linejoin="round" stroke-linecap="round" stroke-miterlimit="4" stroke-width="2.2857" d="M30.286 23.029v4.286c0.002 0.398-0.080 0.792-0.239 1.156s-0.393 0.692-0.686 0.961c-0.293 0.269-0.639 0.474-1.016 0.601s-0.776 0.175-1.173 0.139c-4.396-0.478-8.619-1.98-12.329-4.386-3.452-2.193-6.378-5.12-8.571-8.571-2.414-3.727-3.917-7.97-4.386-12.386-0.036-0.395 0.011-0.793 0.138-1.169s0.33-0.721 0.598-1.014c0.267-0.293 0.593-0.527 0.956-0.687s0.755-0.243 1.152-0.244h4.286c0.693-0.007 1.365 0.239 1.891 0.691s0.869 1.080 0.966 1.766c0.181 1.372 0.516 2.718 1 4.014 0.192 0.511 0.234 1.067 0.12 1.601s-0.379 1.025-0.763 1.413l-1.814 1.814c2.034 3.576 4.995 6.538 8.571 8.571l1.814-1.814c0.388-0.384 0.879-0.649 1.413-0.763s1.090-0.072 1.601 0.12c1.296 0.484 2.643 0.819 4.014 1 0.694 0.098 1.328 0.447 1.781 0.982s0.694 1.217 0.676 1.918z"></path>
</symbol>
</defs>
</svg>
